<mxfile host="app.diagrams.net" modified="2022-07-14T10:10:09.428Z" agent="5.0 (Windows NT 10.0; Win64; x64) AppleWebKit/537.36 (KHTML, like Gecko) Chrome/103.0.5060.114 Safari/537.36" etag="u50CIbvzfLF5NKx--PAd" version="20.1.1" type="github">
  <diagram id="C5RBs43oDa-KdzZeNtuy" name="Page-1">
    <mxGraphModel dx="1185" dy="683" grid="1" gridSize="10" guides="1" tooltips="1" connect="1" arrows="1" fold="1" page="1" pageScale="1" pageWidth="827" pageHeight="1169" math="0" shadow="0">
      <root>
        <mxCell id="WIyWlLk6GJQsqaUBKTNV-0" />
        <mxCell id="WIyWlLk6GJQsqaUBKTNV-1" parent="WIyWlLk6GJQsqaUBKTNV-0" />
        <mxCell id="2edAkVouW0L0a5yWlTD0-2" value="" style="rounded=0;orthogonalLoop=1;jettySize=auto;html=1;" edge="1" parent="WIyWlLk6GJQsqaUBKTNV-1" source="2edAkVouW0L0a5yWlTD0-0" target="2edAkVouW0L0a5yWlTD0-1">
          <mxGeometry relative="1" as="geometry" />
        </mxCell>
        <mxCell id="2edAkVouW0L0a5yWlTD0-0" value="Customer opens webpage" style="ellipse;whiteSpace=wrap;html=1;fillColor=#99FF99;" vertex="1" parent="WIyWlLk6GJQsqaUBKTNV-1">
          <mxGeometry x="330" y="40" width="120" height="80" as="geometry" />
        </mxCell>
        <mxCell id="2edAkVouW0L0a5yWlTD0-6" value="&lt;b&gt;NO&lt;/b&gt;" style="rounded=0;orthogonalLoop=1;jettySize=auto;html=1;" edge="1" parent="WIyWlLk6GJQsqaUBKTNV-1" source="2edAkVouW0L0a5yWlTD0-1" target="2edAkVouW0L0a5yWlTD0-5">
          <mxGeometry relative="1" as="geometry" />
        </mxCell>
        <mxCell id="2edAkVouW0L0a5yWlTD0-1" value="Do you want to &lt;b&gt;SIGNIN/REGISTER&lt;/b&gt;" style="rhombus;whiteSpace=wrap;html=1;fillColor=#99FF99;" vertex="1" parent="WIyWlLk6GJQsqaUBKTNV-1">
          <mxGeometry x="320" y="167.5" width="140" height="90" as="geometry" />
        </mxCell>
        <mxCell id="2edAkVouW0L0a5yWlTD0-10" value="Request new order" style="rounded=0;orthogonalLoop=1;jettySize=auto;html=1;" edge="1" parent="WIyWlLk6GJQsqaUBKTNV-1" target="2edAkVouW0L0a5yWlTD0-7">
          <mxGeometry relative="1" as="geometry">
            <mxPoint x="340" y="780" as="sourcePoint" />
          </mxGeometry>
        </mxCell>
        <mxCell id="2edAkVouW0L0a5yWlTD0-12" style="edgeStyle=none;rounded=0;orthogonalLoop=1;jettySize=auto;html=1;" edge="1" parent="WIyWlLk6GJQsqaUBKTNV-1" source="2edAkVouW0L0a5yWlTD0-5" target="2edAkVouW0L0a5yWlTD0-11">
          <mxGeometry relative="1" as="geometry" />
        </mxCell>
        <mxCell id="2edAkVouW0L0a5yWlTD0-5" value="&lt;div style=&quot;text-align: left;&quot;&gt;&lt;b style=&quot;background-color: initial;&quot;&gt;INPUT&lt;/b&gt;&lt;/div&gt;&lt;div style=&quot;text-align: left;&quot;&gt;&lt;span style=&quot;background-color: initial;&quot;&gt;1. Phone Number&lt;/span&gt;&lt;/div&gt;&lt;div style=&quot;text-align: left;&quot;&gt;&lt;span style=&quot;background-color: initial;&quot;&gt;2. Order Data&lt;/span&gt;&lt;/div&gt;&lt;div style=&quot;text-align: left;&quot;&gt;&lt;span style=&quot;background-color: initial;&quot;&gt;3. Instructions&lt;/span&gt;&lt;/div&gt;" style="shape=parallelogram;perimeter=parallelogramPerimeter;whiteSpace=wrap;html=1;fixedSize=1;fillColor=#99FF99;" vertex="1" parent="WIyWlLk6GJQsqaUBKTNV-1">
          <mxGeometry x="10" y="170" width="220" height="85" as="geometry" />
        </mxCell>
        <mxCell id="2edAkVouW0L0a5yWlTD0-7" value="&lt;b&gt;NEW ORDER API&lt;/b&gt;" style="rounded=0;whiteSpace=wrap;html=1;labelBackgroundColor=#66FF66;fillColor=#99FF99;" vertex="1" parent="WIyWlLk6GJQsqaUBKTNV-1">
          <mxGeometry x="460" y="950" width="230" height="150" as="geometry" />
        </mxCell>
        <mxCell id="2edAkVouW0L0a5yWlTD0-14" value="" style="edgeStyle=none;rounded=0;orthogonalLoop=1;jettySize=auto;html=1;" edge="1" parent="WIyWlLk6GJQsqaUBKTNV-1" source="2edAkVouW0L0a5yWlTD0-11" target="2edAkVouW0L0a5yWlTD0-13">
          <mxGeometry relative="1" as="geometry" />
        </mxCell>
        <mxCell id="2edAkVouW0L0a5yWlTD0-11" value="&lt;b&gt;Processing order&lt;/b&gt;" style="shape=process;whiteSpace=wrap;html=1;backgroundOutline=1;labelBackgroundColor=none;fillColor=#99FF99;" vertex="1" parent="WIyWlLk6GJQsqaUBKTNV-1">
          <mxGeometry x="20" y="340" width="200" height="60" as="geometry" />
        </mxCell>
        <mxCell id="2edAkVouW0L0a5yWlTD0-16" value="&lt;b&gt;YES&lt;/b&gt;" style="edgeStyle=none;rounded=0;orthogonalLoop=1;jettySize=auto;html=1;" edge="1" parent="WIyWlLk6GJQsqaUBKTNV-1" source="2edAkVouW0L0a5yWlTD0-13" target="2edAkVouW0L0a5yWlTD0-15">
          <mxGeometry relative="1" as="geometry" />
        </mxCell>
        <mxCell id="2edAkVouW0L0a5yWlTD0-18" value="" style="edgeStyle=none;rounded=0;orthogonalLoop=1;jettySize=auto;html=1;" edge="1" parent="WIyWlLk6GJQsqaUBKTNV-1" source="2edAkVouW0L0a5yWlTD0-13" target="2edAkVouW0L0a5yWlTD0-17">
          <mxGeometry relative="1" as="geometry" />
        </mxCell>
        <mxCell id="2edAkVouW0L0a5yWlTD0-13" value="&lt;b&gt;Check order Status&lt;/b&gt;" style="rhombus;whiteSpace=wrap;html=1;fillColor=#99FF99;labelBackgroundColor=none;" vertex="1" parent="WIyWlLk6GJQsqaUBKTNV-1">
          <mxGeometry x="10" y="470" width="220" height="80" as="geometry" />
        </mxCell>
        <mxCell id="2edAkVouW0L0a5yWlTD0-15" value="&lt;b&gt;ORDER PLACED text/whatsapp message with token number&lt;/b&gt;" style="shape=parallelogram;perimeter=parallelogramPerimeter;whiteSpace=wrap;html=1;fixedSize=1;fillColor=#99FF99;labelBackgroundColor=none;" vertex="1" parent="WIyWlLk6GJQsqaUBKTNV-1">
          <mxGeometry x="30" y="610" width="180" height="60" as="geometry" />
        </mxCell>
        <mxCell id="2edAkVouW0L0a5yWlTD0-17" value="&lt;b&gt;ORDER FAILED&lt;/b&gt;" style="shape=parallelogram;perimeter=parallelogramPerimeter;whiteSpace=wrap;html=1;fixedSize=1;fillColor=#99FF99;labelBackgroundColor=none;" vertex="1" parent="WIyWlLk6GJQsqaUBKTNV-1">
          <mxGeometry x="300" y="480" width="180" height="60" as="geometry" />
        </mxCell>
      </root>
    </mxGraphModel>
  </diagram>
</mxfile>
